<svg xmlns="http://www.w3.org/2000/svg" id="Layer_2" data-name="Layer 2" viewBox="0 0 923.17 827.78"><defs><style>.cls-1{fill:#000;stroke-width:0}</style></defs><g id="Layer_1-2" data-name="Layer 1"><path d="m581.87 295.48-5.61 12.56 16.84 18.47h-35.46l18.76-39.15-35.75-63.38-9.01-8.27h49.05l-7.83 8.87 17.29 31.62 13.59-31.62v-8.87h19.21l-9.6 8.87-31.47 70.92Zm21.72-70.92-8.57-8.87h8.57zM694.16 264.75l.74.74c-5.32 18.32-17.43 27.04-35.02 27.04-25.12 0-40.19-17.58-40.19-39.89 0-23.93 17.43-38.41 41.66-38.41 20.98 0 33.83 10.79 34.13 31.77h-50.09c.74 17.88 9.6 26.89 24.38 26.89 6.65 0 16.25-1.77 24.38-8.13Zm-48.61-24.82h23.34c0-12.26-3.4-19.06-10.19-19.06-7.39 0-12.41 6.94-13.15 19.06M786.95 276.42c-3.4 11.23-11.67 16.1-21.13 16.1-7.83 0-13.89-3.4-17.43-10.49h-.74c-4.73 5.91-11.97 10.49-22.16 10.49-12.85 0-21.13-7.24-21.13-18.76 0-9.16 5.32-15.51 11.52-19.06h31.03v-7.98c0-11.67-5.61-15.22-15.07-15.22-6.8 0-13.74 1.77-22.75 7.39l-.74-.74c6.65-12.85 18.62-23.94 37.97-23.94 17.29 0 27.63 9.01 27.63 24.67v32.06c0 5.76 2.36 7.39 5.61 7.39 2.22 0 4.28-.74 6.65-2.66l.74.74Zm-40.04-.74v-14.92h-14.78c-2.66 2.81-3.99 6.35-3.99 9.9 0 6.21 3.69 9.46 8.86 9.46 3.55 0 6.8-1.48 9.9-4.43ZM824.92 244.66v34.87l12.85 11.52h-48.16l7.83-8.86v-45.21l-7.24-8.42 34.72-15.22-3.84 25.56.74.3c4.88-16.84 15.81-27.33 32.65-23.49l-9.16 27.48c-7.24-3.1-15.96-3.99-20.39 1.48ZM922.58 267.11c0 14.18-11.97 25.41-33.83 25.41-8.13 0-15.07-1.63-20.69-3.69l-9.6 4.58v-31.03l16.7 20.98c2.95 1.03 5.61 1.48 8.27 1.48 8.57 0 12.41-4.43 12.41-8.86 0-14.04-37.38-12.71-37.38-37.08 0-15.37 14.48-24.67 33.98-24.67 6.65 0 12.56 1.03 17.43 2.81l8.86-3.69v28.37l-16.7-19.21c-1.48-.44-3.1-.59-4.73-.59-8.42 0-12.85 4.28-12.85 8.72 0 13 38.12 10.93 38.12 36.49ZM117.22 277.71H.17l52.64-9.82V17.28l-48.32-5.1L64.98 1.57v266.32zM261.9 197.97v69.92l31.42 9.82h-89.95l47.14-9.82v-69.92H116.56l-6.68-6.68L250.51 2.75 261.9 0v187.76h52.24l-2.36 10.21h-49.89Zm-11.39-10.21V18.07L124.03 187.76zM508.97 140.23c0 84.06-32.6 139.84-87.59 139.84s-87.6-55.78-87.6-139.84S366.38.39 421.38.39s87.59 55.78 87.59 139.84m-12.18 0c0-78.95-25.93-131.2-75.42-131.2s-75.42 52.24-75.42 131.2 25.53 131.2 75.42 131.2 75.42-52.24 75.42-131.2M918.86 422.82c1.23-1.23 2.47-2.77 4.31-4.62-30.82-5.55-57.32-17.88-76.43-43.45-25.58 18.18-50.23 36.37-75.2 54.24-.62 0-.92-.31-1.54-.62v-21.88h-7.4c0 8.94-.31 17.26 0 25.58.33 2.74-1 5.4-3.39 6.78-6.16 4.01-12.64 8.63-18.8 12.94-1.23.62-2.47 1.23-4.01 1.85-.62-4.62-.92-8.63-1.54-12.64-2.47-15.41-6.78-30.2-17.57-42.22a51.36 51.36 0 0 0-30.51-17.57c-39.45-6.16-79.2 26.81-73.97 70.88.52 4.06 1.35 8.08 2.47 12.02 1.46-3.62 2.7-7.32 3.7-11.09 1.54-3.39 3.39-6.78 5.24-10.17 10.17-16.95 38.83-17.88 49.62 1.85 2.64 4.12 4.42 8.74 5.24 13.56 1.23 7.75 1.85 15.58 1.85 23.42 0 11.71-.31 23.11-.62 34.52 0 .92-.31 2.16-.31 3.39-1.2.36-2.45.56-3.7.62-3.7 0-7.7 0-11.4.31-17.28 1.38-31.52 14.11-34.83 31.13a72.43 72.43 0 0 0 6.78 46.84c.64.48 1.26.99 1.85 1.54 2.16-9.55 6.47-17.26 15.1-21.27 8.3-3.77 17.56-4.85 26.5-3.08v70.08c-1.54.31-2.77.31-4.01.62s-2.47.31-3.7.62a66.4 66.4 0 0 0-44.07 33.9c-9.25 16.33-12.33 33.9-13.25 52.39.08.46.29.89.62 1.23 20.65-23.11 43.76-34.52 64.41-31.44 1.7 23.41 1.39 46.91-.92 70.27-3.08 19.42-8.63 37.29-21.57 52.39-.31.31-.31.92-.62 1.85 24.96 1.85 41.91-10.79 56.4-29.59 14.79 17.26 32.05 28.97 56.4 27.74V717.57c14.18 4.01 25.58 11.4 37.29 18.49 21.88-36.37 51.16-60.71 95.23-63.49-.92-2.16-1.54-4.01-2.16-5.55-3.39-9.25-6.78-18.8-6.78-28.97-.31-61.95-.31-123.89-.62-185.84a9.1 9.1 0 0 1 2.77-6.78c7.7-7.52 15.41-15.22 23.11-22.62ZM762.3 813.61a26.05 26.05 0 0 1-17.57-12.64 55.2 55.2 0 0 1-6.78-26.2c-.31-12.64-.31-24.96-.31-37.29 0-88.76.31-177.83 0-266.58-.38-4.85 2.01-9.5 6.16-12.02 6.42-4.16 12.59-8.69 18.49-13.56v368.29Zm75.2-133.14c-20.65-15.1-40.68-30.2-65.64-36.98V445.63c-.34-3.95 1.57-7.76 4.93-9.86 6.16-4.31 12.02-8.94 18.8-14.18 8.63 17.57 21.57 28.35 41.91 28.97zM578.92 634.24c.31-41.3.31-82.9 0-124.51-.31-16.33-.92-32.67-2.16-48.69-.89-15.86-4.98-31.37-12.02-45.61a70.86 70.86 0 0 0-58.86-40.37c-21.57-2.16-43.15.62-64.72 2.77-23.11 2.16-45.92 4.62-69.03 6.47-14.88 1.02-29.83-.12-44.38-3.39-6.47-1.54-13.19-3.27-20.65-5.24.31 4.31.31 8.01.62 11.71 1.85 13.87 5.24 27.12 16.33 37.29a61.7 61.7 0 0 0 22.81 13.56c12.56 3.84 25.74 5.24 38.83 4.13 14.79-1.23 29.59-3.08 44.38-4.62 2.04-.26 4.1-.37 6.16-.31v219.74a136.3 136.3 0 0 0-50.85 9.25A146.7 146.7 0 0 0 341 693.85c-14.18 12.64-30.82 33.28-31.74 39.14 50.85-27.74 101.7-27.43 152.55 1.85 36.06-32.67 79.82-48.39 127.9-55.47-1.23-2.77-1.85-4.93-2.77-6.78a95.45 95.45 0 0 1-8.01-38.34Zm-63.17 54.24c-.74.25-1.46.56-2.16.92-2.77 1.85-4.62 1.23-7.09-1.23-4.3-4.25-8.82-8.27-13.56-12.02a91.3 91.3 0 0 0-43.15-18.18c-1.46-.19-2.9-.5-4.31-.92 0-73.97 0-147.62.31-221.9 16.03-1.54 31.74-4.93 47.46-1.23a31.87 31.87 0 0 1 26.2 24.66 75.2 75.2 0 0 1 2.77 20.34c0 66.88.31 133.45.31 200.02 0 8.01.62 6.47-6.78 9.55Z" class="cls-1"/><path d="M341.31 661.18v1.23c16.64-4.62 32.36-10.17 46.23-20.96 7-5.28 12.79-12.01 16.95-19.72a39.56 39.56 0 0 0 5.86-18.49c.62-37.6.92-74.89 1.23-112.49a73.54 73.54 0 0 1 6.47-33.59c.31-.31.31-1.23.31-2.16a111.6 111.6 0 0 0-29.59 13.25c-19.11 11.4-29.89 28.35-33.9 49.93-.92 4.31-1.23 8.63-1.85 12.94-4.62.62-8.94.92-13.25 1.54-16.33 2.47-26.5 11.71-30.51 27.74-4.01 15.72-2.16 31.44 2.16 46.84.31.31.62.31 1.23.62.03-1.66.24-3.31.62-4.93.89-7.54 6.68-13.58 14.18-14.79 8.63-1.85 17.26-.31 25.58 0 .16.59.48 1.12.92 1.54 0 13.56.31 26.81-.31 40.37-.31 11.59-3.08 22.68-12.33 31.13M517 325.19c-171 2.01-346 2.02-517 0 171-2.02 346-2.01 517 0M55.6 434.59c0 21.87-21.5 45.2-39.46 45.2-8.55 0-13.56-5.25-13.56-15.76 0-21.87 21.62-45.2 39.58-45.2 8.43 0 13.44 5.25 13.44 15.76m-11.24-3.42c0-3.91-.61-6.11-1.71-7.57-10.38.37-28.71 20.77-28.71 43.86 0 3.79.49 6.11 1.59 7.57 10.51-.37 28.83-20.77 28.83-43.86" class="cls-1"/><path d="M122.18 390.61c0 4.52-3.67 7.94-10.38 8.92l-1.83-11.85c-13.68 2.32-20.65 13.44-25.65 32.25v.12h19.42l-1.83 7.21H82.36l-14.05 52.53c-4.76 17.71-16.25 29.32-27.98 29.32-7.09 0-10.63-2.81-10.63-7.21s3.66-7.94 10.38-8.92l1.83 11.85c7.7-2.44 12.22-12.58 15.88-26.27l13.81-51.31H59.38l14.66-9.04c6.48-22.48 21.62-34.82 37.51-34.82 6.96 0 10.63 2.81 10.63 7.21ZM110.81 469.9l19.06-42.64h-13.19l3.18-7.21h13.32l5.5-12.22 12.71-4.64-7.45 16.86h15.03l-3.3 7.21h-15.03l-18.94 42.39c4.15-.49 11.73-3.05 21.38-10.63l.37.61c-9.53 14.78-23.33 20.16-28.46 20.16s-6.35-4.76-4.15-9.9Z" class="cls-1"/><path d="M207.93 462.81c-8.31 12.46-17.96 16.98-23.09 16.98-4.03 0-4.89-3.05-3.79-5.99l16-44.84c-5.25 1.22-31.27 23.09-40.56 49.6h-10.75l29.93-85.03c-3.91.49-9.53 3.42-14.29 7.45l-.37-.61c8.43-12.46 17.96-16.98 23.09-16.98 3.79 0 5.01 2.69 3.79 5.99l-22.6 64.38c7.57-12.71 25.04-34.94 38.48-34.94 6.6 0 5.74 5.25 3.66 11.36l-14.17 39.46c4.03-.49 9.77-3.42 14.29-7.45l.37.61ZM225.15 453.89c-1.47 5.38-2.32 10.99-1.83 16.37 7.7 0 19.55-6.11 27.24-13.68l.37.61c-7.82 15.88-22.36 22.6-30.42 22.6-6.11 0-9.16-3.79-9.16-12.71 0-23.46 19.91-48.26 41.29-48.26 7.21 0 10.26 3.3 10.26 7.94 0 9.53-12.58 18.2-37.75 27.12Zm1.59-4.64c18.33-8.18 24.92-17.47 24.92-22.11 0-1.83-.98-2.93-3.05-2.93-6.96 0-16.74 11.24-21.87 25.04" class="cls-1"/></g></svg>