<svg id="Layer_1" data-name="Layer 1" xmlns="http://www.w3.org/2000/svg" viewBox="0 0 454.1 46.7"><defs><style>.cls-1{fill:#aa1e22;}</style></defs><path class="cls-1" d="M25.1,6a9.24,9.24,0,0,0,5.1-5,.1.1,0,0,0-.1.1C24.6,2.8,18.8,1,13.3.7,10.3.6,6.8.1,4.4,1.9A7.81,7.81,0,0,0,1.5,7.7,4.66,4.66,0,0,1,5,5.9c6.6-.5,12.8,1.4,19.3.6V28.7a13.38,13.38,0,0,1-6.4,2.7c-4.3.6-8.4-.8-10.6-5-2.6-6-.9-13.6,2.7-18.5a18.38,18.38,0,0,0-7.5,10C1.1,22.7,1.3,29,4.7,32.6c3.7,4.4,9.8,5.2,15,3.5,4.3-1.5,7.8-6.6,8.6-11.5l-3.2,3.5Z"/><path class="cls-1" d="M132.5,5.8c1.4.8,2.9,2.2,4.8,1.3a4.8,4.8,0,0,0,2.6-4l-1.2.3c-1.6.1-2.8-1.4-3.2-2.8l-4.9,5.1.5.7A1.54,1.54,0,0,1,132.5,5.8Z"/><path class="cls-1" d="M151.7,32.6a4.61,4.61,0,0,0-2.9-2.1V5.1A10.46,10.46,0,0,1,150.3.7,11.55,11.55,0,0,1,142.4,3a4.86,4.86,0,0,1,1.3,2.8V30.9l-.4.2a4,4,0,0,0-1.9,3.5l1.6-.4c2-.4,3.5.8,4.9,2.4a35.29,35.29,0,0,1,6.2-4.4l-.4-.7Z"/><path class="cls-1" d="M332.4,32.6a4.42,4.42,0,0,0-2.8-2.1V5.1A11.21,11.21,0,0,1,330.9.6,11.55,11.55,0,0,1,323,2.9a4.86,4.86,0,0,1,1.3,2.8l.1,25.2-.4.2a4,4,0,0,0-1.9,3.5l1.6-.4c2-.4,3.6.8,4.9,2.4a32,32,0,0,1,6.2-4.4l-.4-.7Z"/><path class="cls-1" d="M400.9,5.8c1.5.8,3,2.2,4.9,1.3a4.71,4.71,0,0,0,2.5-4l-1.2.3c-1.5.1-2.7-1.4-3.2-2.8L399,5.7l.6.7A1.29,1.29,0,0,1,400.9,5.8Z"/><path class="cls-1" d="M48.8,16.9a4.71,4.71,0,0,0,2.1-3.7,4.94,4.94,0,0,1-1.6.5,4.27,4.27,0,0,1-3.8-2.5l-9,6.5C37,12,35.4,5.4,38,.7c-2.3,1.5-4.9,2.7-7.9,2.2a5.6,5.6,0,0,1,1.2,2.6l.1,24.9a5.67,5.67,0,0,0-2.8,3.1c2.4,0,4.3,1.2,6.1,2.9a17.36,17.36,0,0,1,5-4.1,7.51,7.51,0,0,0-3.1-2V18.8l4.6-3.4,1.2,1.5a4.18,4.18,0,0,0,1.2.8l-.1,11.6a12.59,12.59,0,0,1-1.1,5.5c-.8,1.8.8,3,1,4.6a6.38,6.38,0,0,1-1.1,5.4,4.94,4.94,0,0,0,3-1.2c1.2-1.1,1.3-2.7,1.1-4.4-.5-1.9-2.4-2.1-3.3-3.6a1.57,1.57,0,0,1,.6-1.7c1.9-1,4.4-.6,6.4-.3A6.38,6.38,0,0,1,48.7,30C48.7,25.7,48.7,21.2,48.8,16.9Z"/><path class="cls-1" d="M108.2,13.4c0-3.2-.2-6.4-1.6-9A7.71,7.71,0,0,0,101.1.7C94.2.1,87.4,3.1,80.8.7a7.66,7.66,0,0,0,.7,3.7C84.1,8.9,89.8,7.3,93.8,7V29.1c-5.4-.2-10,2.8-13.1,7.9a14.44,14.44,0,0,1,15.6-.1,22.78,22.78,0,0,1,13-5.6,13.74,13.74,0,0,1-1.1-3.6Zm-5.8,18.5-1.3.5A10.16,10.16,0,0,0,94.7,29V6.8c2.4-.2,5.8-1.1,7.2,1.7l.4,1.6.1,21.4Z"/><path class="cls-1" d="M214.5,26.8l.1-19.3,3.1-3.1A11.55,11.55,0,0,1,209.9,0l-7.6,5.5V3.1h-.8V6.2L198.9,8a13.59,13.59,0,0,0-.7-3.5c-.7-1.8-2.3-3.6-4-3.8a6.72,6.72,0,0,0-7,3.1,6.29,6.29,0,0,0-.4,5.5,4.71,4.71,0,0,1,1.2-3,3,3,0,0,1,3.4-.5c2.7,1.7,1.5,5.7,1.8,8.7h-1.3a4.12,4.12,0,0,0-3.7,2.6,7.64,7.64,0,0,0,.7,5.6l.3-1c.7-1.6,2.3-1.8,3.9-1.7v7a5.79,5.79,0,0,0-2.8.9c-2.7,1.7-3.7,5-3.8,8.3a7.78,7.78,0,0,1,6.6-3.5c.1,4.5.4,9.4-2.5,12.6a6.4,6.4,0,0,0,5.9-3,6.78,6.78,0,0,0,5.7,2.8V34.5a16.16,16.16,0,0,1,3.7,1.9c2.1-3.9,5.7-6.4,9.6-6.4A17,17,0,0,1,214.5,26.8ZM199.6,42.7c-.8-1.6-.5-3.6-.6-5.5V9.1l2.4-1.8V44.16A3.05,3.05,0,0,1,199.6,42.7ZM209,30.8a18.91,18.91,0,0,0-6.6-3.7V6.7l2.4-1.8A4.38,4.38,0,0,0,209,7.8Z"/><path class="cls-1" d="M12.6,29.3c2.7-.9,6.5-1.5,7.1-5.5V8.5a45.13,45.13,0,0,1-7.9,4v1.1l2.1-.9c0,4.4.1,9,0,13.5A4.85,4.85,0,0,1,12.6,29.3Z"/><path class="cls-1" d="M88.7,10.3a7.48,7.48,0,0,0-3.2,6.1,4.6,4.6,0,0,0-3.7,1.3c-1.4,1.8-1.1,4.8-.4,6.8l.1-1.1c.5-1.9,2.6-1.2,4-1.3-.2,2.7.7,6.1-1.7,7.6,2.9-.8,6.6-2.1,7.4-5.9l.2-11.2a6.58,6.58,0,0,1,.8-4A14.19,14.19,0,0,0,88.7,10.3Z"/><path class="cls-1" d="M137.9,28.7V17.1a5.5,5.5,0,0,0,2.8-3c-2.5.1-4.3-1.2-6.1-2.9a17.36,17.36,0,0,1-5,4.1,6.93,6.93,0,0,0,3.1,2l.1,14.3a5.87,5.87,0,0,0,3,4.8,24.88,24.88,0,0,1,5.2-4v-.7a3.14,3.14,0,0,1-2.1-.7A3.26,3.26,0,0,1,137.9,28.7Z"/><path class="cls-1" d="M165.7,15.3a6.18,6.18,0,0,0,3.1,2V28.7l-4.6,3.4a4.12,4.12,0,0,0-2.4-2.1l-.1-13.5-.4-2.1a5,5,0,0,0-3.9-2.9,15.07,15.07,0,0,1-4.1,3.9v.7a6.28,6.28,0,0,1,1.9.3,3,3,0,0,1,1.3,2.5l.1,11.7a4.43,4.43,0,0,0-2.4,3.8,6.07,6.07,0,0,1,3-.3,4,4,0,0,1,2.4,2.2l9-6.6a24.55,24.55,0,0,0,.4,4.8c1.3,1.9,2.8,4.1,1.7,6.7a3.66,3.66,0,0,1-2.8,2.3c-2.8.8-4.1-2.8-6-4.5a4,4,0,0,0-3.9-.7c-2.1,1-3,3.6-3.1,5.8l.2-.2c1.5-1.8,3.6-.4,5.2.3a12.2,12.2,0,0,0,10.7-.8,9.12,9.12,0,0,0,4.4-7.4c.4-2.3-1.7-3.6-1.6-5.8V17.1a5.5,5.5,0,0,0,2.8-3c-2.4.1-4.3-1.2-6-2.9A16.74,16.74,0,0,1,165.7,15.3Z"/><path class="cls-1" d="M252.9,28.7c0-3.9-.1-8,.1-11.8a4.46,4.46,0,0,0,2.1-3.7,4.42,4.42,0,0,1-1.5.5,4.8,4.8,0,0,1-4-2.4l-8.9,6.5V16.4c-.2-2.2-1.5-4.4-3.3-5a18.33,18.33,0,0,1-5,3.9V16a4.26,4.26,0,0,1,2.3.8,4.19,4.19,0,0,1,.8,2.2V30.5a5.86,5.86,0,0,0-2.8,3,8.33,8.33,0,0,1,6.2,3.1,16.65,16.65,0,0,1,5-4.3,7.51,7.51,0,0,0-3.1-2V18.8l4.6-3.4c.5.9,1.3,2,2.3,2.2l.1,13.5.5,2.1a5.19,5.19,0,0,0,3.8,3,15.56,15.56,0,0,1,4.1-4v-.7a5.41,5.41,0,0,1-1.9-.3A2.85,2.85,0,0,1,252.9,28.7Z"/><path class="cls-1" d="M279.9,31.5a5.41,5.41,0,0,1-1.9-.3,3.08,3.08,0,0,1-1.4-2.5c0-3.9,0-8,.1-11.8a4.71,4.71,0,0,0,2.1-3.7,4.94,4.94,0,0,1-1.6.5c-1.6.1-2.9-1.1-3.9-2.4l-9,6.5V16.4c-.2-2.2-1.5-4.4-3.3-5a18.33,18.33,0,0,1-5,3.9V16a4.26,4.26,0,0,1,2.3.8,3.49,3.49,0,0,1,.8,2.2V30.5a5.68,5.68,0,0,0-2.7,3,8.13,8.13,0,0,1,6.1,3.1,16.65,16.65,0,0,1,5-4.3,7.51,7.51,0,0,0-3.1-2V18.8l4.6-3.4a4.3,4.3,0,0,0,2.4,2.2V31.1l.5,2.1a5.19,5.19,0,0,0,3.8,3,15.91,15.91,0,0,1,4.2-4Z"/><path class="cls-1" d="M322.4,14.1a7.93,7.93,0,0,1-6.1-2.9,15.87,15.87,0,0,1-5,4.1,6.18,6.18,0,0,0,3.1,2V28.7l-4.5,3.4a4.12,4.12,0,0,0-2.4-2.1l-.1-13.5-.5-2.1a4.85,4.85,0,0,0-3.9-2.9,13.47,13.47,0,0,1-4,3.9v.7a6.28,6.28,0,0,1,1.9.3,3.08,3.08,0,0,1,1.4,2.5l.1,11.7a4.07,4.07,0,0,0-2.4,3.8,6,6,0,0,1,3-.3,4.3,4.3,0,0,1,2.4,2.2l9-6.6a18.69,18.69,0,0,0,.4,4.8c1.3,1.9,2.7,4.1,1.7,6.7a4,4,0,0,1-2.8,2.3c-2.9.8-4.2-2.8-6.1-4.5a4,4,0,0,0-3.9-.7c-2.1,1-3,3.6-3.1,5.8l.2-.2c1.5-1.8,3.7-.4,5.3.3a12,12,0,0,0,10.6-.8,9.46,9.46,0,0,0,4.5-7.4c.3-2.3-1.7-3.6-1.6-5.8V17.1A5.88,5.88,0,0,0,322.4,14.1Z"/><path class="cls-1" d="M355.3,14.1c-2.5.1-4.5-1.2-6.2-2.9a15.87,15.87,0,0,1-5,4.1,6.18,6.18,0,0,0,3.1,2V32.2c-1.2.2-2.5,1.5-3.6.3a4.78,4.78,0,0,1-3.2-4.2l-.1-12.1-.5-2.1a4.86,4.86,0,0,0-3.7-2.9,13.47,13.47,0,0,1-4,3.9v.6a4.92,4.92,0,0,1,2,.5,2.44,2.44,0,0,1,1.2,2.1l.1,9.2a13.26,13.26,0,0,0,.7,6,6,6,0,0,0,4.5,3.1c3.8-3,8.3-4.1,13.2-4.2a5.33,5.33,0,0,1-1.3-3.4V17.1A5.88,5.88,0,0,0,355.3,14.1Z"/><path class="cls-1" d="M395.7,28.7c-.1-3.9-.1-8,0-11.8a4.46,4.46,0,0,0,2.1-3.7,4.42,4.42,0,0,1-1.5.5,4.8,4.8,0,0,1-4-2.4l-8.9,6.5V16.4c-.2-2.2-1.5-4.4-3.3-5a18.74,18.74,0,0,1-5.1,3.9V16a4.31,4.31,0,0,1,2.4.8,4.19,4.19,0,0,1,.8,2.2V30.5a5.86,5.86,0,0,0-2.8,3,8.33,8.33,0,0,1,6.2,3.1,14.56,14.56,0,0,1,5-4.3,9.05,9.05,0,0,0-3.1-2V18.8l4.6-3.4c.5.9,1.3,2,2.3,2.2l.1,13.5.4,2.1a5.18,5.18,0,0,0,3.9,3,15.56,15.56,0,0,1,4.1-4v-.7a6.28,6.28,0,0,1-1.9-.3A2.76,2.76,0,0,1,395.7,28.7Z"/><path class="cls-1" d="M406.4,28.7V17.1a5.88,5.88,0,0,0,2.8-3c-2.5.1-4.4-1.2-6-2.9a20.51,20.51,0,0,1-5,4.1,7.21,7.21,0,0,0,3,2l.1,14.3a6.1,6.1,0,0,0,3,4.8,28.38,28.38,0,0,1,5.3-4v-.7a3.6,3.6,0,0,1-2.2-.7A3.26,3.26,0,0,1,406.4,28.7Z"/><path class="cls-1" d="M452.2,31.2a2.85,2.85,0,0,1-1.4-2.5c0-3.9-.1-8,.1-11.8a4.46,4.46,0,0,0,2.1-3.7,4.42,4.42,0,0,1-1.5.5c-1.6.1-3.1-1.1-4-2.4l-8.9,6.5V16.4c-.2-2.2-1.5-4.4-3.3-5a18.33,18.33,0,0,1-5,3.9V16a4.26,4.26,0,0,1,2.3.8,4.19,4.19,0,0,1,.8,2.2V30.5a5.86,5.86,0,0,0-2.8,3,8.33,8.33,0,0,1,6.2,3.1,15.53,15.53,0,0,1,5-4.3,7.51,7.51,0,0,0-3.1-2V18.8l4.6-3.4c.5.9,1.3,2,2.3,2.2l.1,13.5.5,2.1a5.19,5.19,0,0,0,3.8,3,15.56,15.56,0,0,1,4.1-4v-.7A5.41,5.41,0,0,1,452.2,31.2Z"/><path class="cls-1" d="M70.1,19.6a21.18,21.18,0,0,1-5.5-8.3c-3.3,3.1-7.9,3.9-12.3,3a5.34,5.34,0,0,1,1.3,3.1l.1,13a6.26,6.26,0,0,0-2.9,3.1c4.2-.4,7.7,1.4,11.2,3.1l6.8-5.1a1.62,1.62,0,0,0-.5-.9c-1,.8-2.1,1.4-3.1,2.2a17.18,17.18,0,0,0-6.4-2.7V26.6Zm-9.5-5a71.83,71.83,0,0,0,3.9,7.2l-5.6,3.5V15.1h-.1Z"/><path class="cls-1" d="M232.2,30.6c-1,.8-2,1.4-3.1,2.2a17.9,17.9,0,0,0-6.4-2.7V26.6l11.3-7a22.05,22.05,0,0,1-5.4-8.3c-3.3,3.1-8,3.9-12.4,3a5.34,5.34,0,0,1,1.3,3.1l.1,13a5.85,5.85,0,0,0-2.9,3.1c4.2-.4,7.6,1.4,11.1,3.1l6.9-5.1A2.62,2.62,0,0,0,232.2,30.6Zm-9.5-15.5,1.8-.5c1.2,2.4,2.4,4.9,3.8,7.2l-5.6,3.5Z"/><path class="cls-1" d="M127.1,28V16.9a5.32,5.32,0,0,0,2.4-3.7,3.92,3.92,0,0,1-2.7.7c-1.1-.3-2-1.7-2.7-2.6-1.5,1.7-3,3.1-5.1,3.2-1.7.2-2.7-1.8-3.3-3.2a7.61,7.61,0,0,1-4.4,3.6,12.39,12.39,0,0,0,4.2,2.3,4,4,0,0,0,4.4-1.8,5.3,5.3,0,0,0,2.4,2.5v3.3a7.31,7.31,0,0,0-1.9-.7,8.8,8.8,0,0,0-9.1,4.6,9.75,9.75,0,0,0-.1,8.5,6.81,6.81,0,0,0,5,3.1l6.3-4.9.6,1.7a4.41,4.41,0,0,0,3.8,2.8l4.2-4.2a4.82,4.82,0,0,1-2.8-1.2A5.45,5.45,0,0,1,127.1,28Zm-4.9,2.7c-1,.7-2,1.7-3.1.9a6.08,6.08,0,0,1-4.2-4.3,5.27,5.27,0,0,1,1.2-4.7,4.71,4.71,0,0,1,6.1-.5Z"/><path class="cls-1" d="M372.9,30.9a4.25,4.25,0,0,1-1.2-2.9V16.9a5.32,5.32,0,0,0,2.4-3.7,4.23,4.23,0,0,1-2.7.7c-1.2-.3-2.1-1.7-2.7-2.6-1.5,1.7-3.1,3.1-5.1,3.2-1.7.2-2.7-1.8-3.3-3.2a7.61,7.61,0,0,1-4.4,3.6,12.39,12.39,0,0,0,4.2,2.3,4,4,0,0,0,4.4-1.8,4.88,4.88,0,0,0,2.4,2.5v3.3a7.31,7.31,0,0,0-1.9-.7,8.8,8.8,0,0,0-9.1,4.6,9.75,9.75,0,0,0-.1,8.5c1.1,2,3,2.7,5,3.1l6.3-4.9.6,1.7a4.3,4.3,0,0,0,3.8,2.8l4.2-4.2A4.82,4.82,0,0,1,372.9,30.9Zm-6.1-.2c-1,.7-2,1.7-3.1.9-1.8-.6-3.9-2.1-4.2-4.3a5.27,5.27,0,0,1,1.2-4.7,4.59,4.59,0,0,1,6.1-.5Z"/><path class="cls-1" d="M428.1,30.9a5.45,5.45,0,0,1-1.2-2.9V16.9a5.32,5.32,0,0,0,2.4-3.7,3.92,3.92,0,0,1-2.7.7c-1.1-.3-2-1.7-2.7-2.6-1.5,1.7-3,3.1-5.1,3.2-1.7.2-2.7-1.8-3.3-3.2a7.61,7.61,0,0,1-4.4,3.6,12.39,12.39,0,0,0,4.2,2.3,4,4,0,0,0,4.4-1.8,5.3,5.3,0,0,0,2.4,2.5v3.3a7.31,7.31,0,0,0-1.9-.7,8.73,8.73,0,0,0-9.3,5,9.22,9.22,0,0,0,0,8.1,6.81,6.81,0,0,0,5,3.1l6.3-4.9.6,1.7a4.3,4.3,0,0,0,3.8,2.8l4.2-4.2A5.51,5.51,0,0,1,428.1,30.9Zm-6-.2c-1,.7-2,1.7-3.1.9-1.8-.6-3.8-2.1-4.1-4.3a5,5,0,0,1,1.1-4.7,4.59,4.59,0,0,1,6.1-.5Z"/><path class="cls-1" d="M292.6,21.3c2.4-2.7,4.7-5.5,5.9-8.8.4-.4-.1-.7-.4-.9-.4.7-.9,1.6-1.6,1.8-2,.5-3.6-.8-4.9-2.2a12.52,12.52,0,0,1-11.1,3.2,4.9,4.9,0,0,1,1,2.6c-.1,2.9.7,6.4-1,8.5l6.1.1c-2.9,2.8-5.9,6-7.6,9.6-.5.6.4.6.6.8a6,6,0,0,1,2.1-2.1c2.4-.7,4.3,1.2,6.2,2.6a11.58,11.58,0,0,1,11.3-3.1,6.33,6.33,0,0,1-1-3.1c.1-2.8-.8-6.5,1-8.9ZM286.2,23V15.1l1.3-.2c1.3,1.6,2.8,2.7,4.8,2.3a9.26,9.26,0,0,0,4.3-2.6,43.4,43.4,0,0,1-7,8.4C288.6,23.1,287.4,23,286.2,23Zm7.1,9.5-1.1.4a5.54,5.54,0,0,0-4-3.2c-2.3-.2-4,1-5.9,1.8a53.57,53.57,0,0,1,8.1-7.7h2.9Z"/></svg>