<svg width="339" height="66" viewBox="0 0 339 66" fill="none" xmlns="http://www.w3.org/2000/svg">
<path fill-rule="evenodd" clip-rule="evenodd" d="M0 12.9902C0.165857 12.9967 0.332544 13 0.5 13C0.56679 13 0.633458 12.9995 0.7 12.9984C7.44478 12.8926 12.8926 7.44478 12.9984 0.7C12.9995 0.633458 13 0.56679 13 0.5C13 0.332544 12.9967 0.165857 12.9902 0H339V66H12.9902C12.9967 65.8341 13 65.6675 13 65.5C13 65.4332 12.9995 65.3665 12.9984 65.3C12.8926 58.5552 7.44478 53.1074 0.7 53.0016C0.633458 53.0005 0.56679 53 0.5 53C0.332544 53 0.165857 53.0033 0 53.0098V12.9902ZM0.7 52.3015C7.83139 52.4074 13.5926 58.1686 13.6985 65.3H338.3V0.7H13.6985C13.5926 7.83139 7.83139 13.5926 0.7 13.6985V52.3015Z" fill="url(#paint0_linear_51_137)"/>
<defs>
<linearGradient id="paint0_linear_51_137" x1="0" y1="33" x2="339" y2="33" gradientUnits="userSpaceOnUse">
<stop stop-color="white"/>
<stop offset="1" stop-color="white" stop-opacity="0"/>
</linearGradient>
</defs>
</svg>
