<svg xmlns="http://www.w3.org/2000/svg" width="339" height="66" fill="none"><path fill="url(#a)" fill-rule="evenodd" d="M0 12.99a13 13 0 0 0 .7.008C7.445 12.893 12.893 7.445 12.998.7a12 12 0 0 0-.008-.7H339v66H12.99a13 13 0 0 0 .008-.7C12.893 58.555 7.445 53.107.7 53.002a12 12 0 0 0-.7.008zm.7 39.311c7.131.106 12.893 5.868 12.999 12.999H338.3V.7H13.699C13.593 7.831 7.83 13.593.7 13.699z" clip-rule="evenodd"/><defs><linearGradient id="a" x1="0" x2="339" y1="33" y2="33" gradientUnits="userSpaceOnUse"><stop stop-color="#fff"/><stop offset="1" stop-color="#fff" stop-opacity="0"/></linearGradient></defs></svg>