<svg xmlns="http://www.w3.org/2000/svg" width="375" height="269" fill="none"><path fill="#fff" d="M271.014 232.859v1.52l-1.595-.587c.406.392.677.918.677 1.626 0 1.956-2.077 2.588-3.672 2.588-.632 0-1.354-.105-1.971-.346-.316.256-.452.511-.452.782 0 .361.226.587.662.587h5.011c.783.421 1.34 1.204 1.34 2.197 0 1.67-1.55 3.19-5.207 3.19-2.167 0-3.536-.632-3.536-1.79 0-.602.361-1.114 1.144-1.49-.602-.406-.903-1.023-.903-1.716 0-.887.496-1.595 1.294-2.091-.632-.407-1.054-1.024-1.054-1.911 0-1.957 2.077-2.589 3.672-2.589.602 0 1.249.091 1.851.301zm-4.5 4.5c.602 0 .918-.738.918-1.701 0-1.158-.466-2.182-1.143-2.182-.587 0-.918.738-.918 1.701 0 1.159.481 2.182 1.143 2.182m1.806 4.83c0-.587-.346-.933-1.068-.933h-2.724a1.6 1.6 0 0 0-.391 1.069c0 .842.572 1.399 1.971 1.399 1.475 0 2.212-.647 2.212-1.535m7.562-1.384c-2.152 0-4.364-1.249-4.364-3.988s2.212-3.988 4.364-3.988 4.364 1.249 4.364 3.988-2.212 3.988-4.364 3.988m.136-.692c.963 0 1.234-1.234 1.234-2.98 0-2.182-.527-3.611-1.505-3.611-.963 0-1.249 1.234-1.249 2.979 0 2.182.542 3.612 1.52 3.612m13.538-1.024.075.076c-.346 1.143-1.189 1.64-2.152 1.64-.798 0-1.415-.346-1.776-1.069h-.075c-.481.602-1.219 1.069-2.257 1.069-1.309 0-2.152-.738-2.152-1.911 0-.933.542-1.58 1.174-1.941h3.16v-.813c0-1.189-.572-1.55-1.535-1.55-.692 0-1.4.181-2.317.752l-.076-.075c.677-1.309 1.896-2.438 3.868-2.438 1.76 0 2.814.918 2.814 2.513v3.266c0 .587.24.752.571.752.226 0 .437-.075.678-.271m-5.011.452c.361 0 .692-.151 1.008-.452v-1.52h-1.505a1.46 1.46 0 0 0-.406 1.009c0 .632.376.963.903.963m8.951.21.797.903h-4.394l.798-.903v-8.607l-.737-.858 3.536-1.55zm9.302-4.86c-1.008-.301-1.806-.045-2.272.421v4.454l1.805.888h-4.334l1.204-.888v-4.679l-1.053-.753 2.378-1.038-.286 1.61.075.03c.542-.993 1.64-1.791 2.994-1.49zm8.408 4.575.076.075c-.377.978-.858 1.264-1.475 1.264-.752 0-1.249-.422-1.385-1.114h-.075c-.511.707-1.234 1.114-2.167 1.114-1.203 0-2.031-.662-2.031-1.761 0-.797.436-1.414 1.023-1.73h3.1v-1.264c0-1.189-.466-1.656-1.52-1.656-.707 0-1.444.226-2.212.768l-.075-.075c.722-1.295 1.941-1.791 3.025-1.791 1.354 0 2.106.782 2.106 2.242v3.401c0 .707.316.873.723.873.285 0 .526-.076.887-.346m-4.589.451c.526 0 1.068-.256 1.655-.813v-1.264h-2.378c-.225.256-.346.572-.346 1.009 0 .812.527 1.068 1.069 1.068m6.911-8.156a.89.89 0 0 1-.888-.888.9.9 0 0 1 .888-.888.9.9 0 0 1 .888.888.89.89 0 0 1-.888.888m.738 8.005 1.203.888h-3.731l1.203-.888v-4.679l-1.053-.753 2.378-1.038zm3.626-4.74c0 1.595 3.957.994 3.957 3.507 0 1.399-1.309 2.272-2.663 2.272a4.1 4.1 0 0 1-1.656-.376l-.932.376v-2.513l1.158 1.565c.452.225.918.346 1.324.346.918 0 1.415-.572 1.415-1.189 0-1.806-3.897-1.144-3.897-3.596 0-1.475 1.444-2.122 2.693-2.122.527 0 1.038.12 1.49.301l.767-.301v2.513l-1.294-1.761a2.7 2.7 0 0 0-.903-.165c-.993 0-1.459.587-1.459 1.143m9.344 4.53c.602 0 1.324-.181 2.197-.843l.075.075c-.526 1.565-1.685 2.017-2.708 2.017-1.911 0-3.446-1.565-3.446-3.822 0-2.378 1.73-3.687 3.521-3.687 1.415 0 2.784.812 2.784 2.784h-4.966c-.015.15-.015.301-.015.466 0 1.746.873 3.01 2.558 3.01m-.557-5.718c-.918 0-1.64.617-1.896 1.73h3.341c-.015-.948-.557-1.73-1.445-1.73m11.074 5.462 1.039.798-1.686.707-.451-1.339h-.075l-.151-.512v-3.702c0-.888-.843-1.354-1.7-1.354-1.34 0-2.318 1.128-2.318 3.009 0 1.746.828 2.799 2.152 2.799a2.78 2.78 0 0 0 1.866-.752l.151.527c-.452.662-1.34 1.324-2.483 1.324-1.535 0-3.16-1.189-3.16-3.567 0-2.588 1.911-3.942 3.897-3.942.436 0 1.068.06 1.595.226v-2.799l-1.053-.753 2.377-1.038zM181.075 221.237h-12.038v16.452l8.026 3.311h-24.378l12.038-3.311v-16.452h-33.406l-2.307-2.006 35.713-48.455 4.314-1.003v47.552h12.841zm-46.849-3.912h30.497v-41.733zm59.976 24.377c-1.806 0-3.311-1.505-3.311-3.411 0-1.805 1.505-3.31 3.311-3.31 1.805 0 3.31 1.505 3.31 3.31 0 1.906-1.505 3.411-3.31 3.411m44.209-37.419c8.728 3.511 16.954 7.925 16.954 18.96 0 12.239-9.931 18.459-22.873 18.459-12.841 0-22.572-6.621-22.572-18.459 0-9.129 5.819-15.649 15.55-19.361-7.022-3.11-12.741-7.223-12.741-15.851 0-10.533 8.527-17.957 20.064-17.957 11.637 0 19.763 6.621 19.763 16.954 0 8.226-5.317 13.744-14.145 17.255m-21.067-16.954c0 9.129 8.527 12.239 17.556 15.65 9.129-3.511 13.242-8.929 13.242-15.851 0-8.226-5.818-14.145-15.449-14.145-9.731 0-15.349 7.123-15.349 14.346m15.349 51.464c10.935 0 17.857-5.819 17.857-14.847 0-11.838-11.437-14.848-21.77-18.76-9.53 3.411-14.245 9.631-14.245 17.556 0 9.43 6.922 16.051 18.158 16.051M153.829 86.097l.798.903h-4.394l.797-.903v-4.273c0-.873-.286-1.16-.888-1.16-.391 0-.737.091-1.264.467v4.966l.798.903h-4.394l.797-.903v-4.273c0-.873-.286-1.16-.887-1.16-.392 0-.738.091-1.264.467v4.966l.797.903h-4.394l.798-.903v-4.604l-.738-.858 3.537-1.55-.226 1.444.075.076c.707-.738 1.64-1.43 2.995-1.43.902 0 1.715.316 2.001 1.385.707-.723 1.625-1.385 2.949-1.385 1.129 0 2.107.497 2.107 2.287zm3.51-7.614a1.56 1.56 0 0 1-1.535-1.535c0-.828.707-1.535 1.535-1.535s1.535.707 1.535 1.535-.707 1.535-1.535 1.535m1.475 7.614.797.903h-4.394l.798-.903v-4.604l-.737-.858 3.536-1.55zm4.981 0 .798.903h-4.394l.798-.903V77.49l-.738-.858 3.536-1.55zm4.982 0 .798.903h-4.394l.797-.903V77.49l-.737-.858 3.536-1.55zm3.507-7.614a1.56 1.56 0 0 1-1.535-1.535c0-.828.708-1.535 1.535-1.535.828 0 1.535.707 1.535 1.535s-.707 1.535-1.535 1.535m1.475 7.614.797.903h-4.394l.798-.903v-4.604l-.737-.858 3.536-1.55zm5.869 1.053c-2.151 0-4.364-1.249-4.364-3.987s2.213-3.988 4.364-3.988c2.152 0 4.364 1.25 4.364 3.988s-2.212 3.987-4.364 3.987m.136-.692c.963 0 1.234-1.234 1.234-2.98 0-2.181-.527-3.61-1.505-3.61-.963 0-1.249 1.233-1.249 2.979 0 2.182.542 3.611 1.52 3.611m13.763-.36.798.902h-4.394l.797-.903v-4.273c0-.888-.391-1.16-1.023-1.16-.346 0-.812.091-1.339.467v4.966l.797.903h-4.394l.798-.903v-4.604l-.737-.858 3.536-1.55-.226 1.444.075.076c.723-.768 1.596-1.43 3.07-1.43 1.144 0 2.242.512 2.242 2.287zm8.471 1.052c-2.001 0-3.671-1.43-3.671-3.762 0-2.317 1.67-3.746 3.671-3.746 2.017 0 3.672 1.43 3.672 3.746 0 2.333-1.655 3.762-3.672 3.762m.241-.601c1.369 0 1.866-1.325 1.866-2.83 0-2.03-1.053-3.49-2.332-3.49-1.385 0-1.896 1.339-1.896 2.844 0 2.031 1.068 3.476 2.362 3.476m8.73-10.67c-1.099.076-1.641 1.13-1.641 2.8v1.113h2.438l-.466.888h-1.972v5.432l1.806.888h-4.319l1.189-.873V80.68h-1.505l1.505-1.114v-.451c0-2.754 1.595-3.837 3.236-3.837.797 0 1.489.18 2.016.451l-.963 1.28z"/><path stroke="#fff" d="M0 133.5h375"/><path fill="#fff" d="M73.755 82.787h.1V87H28.01c30.296-27.889 38.422-39.927 38.422-52.166 0-9.13-5.016-14.747-14.747-14.747-8.327 0-15.75 4.715-21.067 14.747l-.502-.502c3.913-11.837 12.44-18.258 22.974-18.258 11.737 0 17.957 7.022 17.957 17.757 0 13.643-9.932 26.283-34.41 48.956h33.106l4.012-10.835zm16.214 4.915c-1.806 0-3.31-1.505-3.31-3.41 0-1.806 1.504-3.311 3.31-3.311 1.805 0 3.31 1.505 3.31 3.31 0 1.906-1.505 3.411-3.31 3.411m13.712-70.926h45.445C132.874 44.164 125.049 63.526 123.745 87h-4.815c1.805-23.475 10.834-43.137 24.779-66.01h-35.815l-4.213 11.436z"/><path fill="url(#a)" fill-opacity=".2" d="M60.061 114.639c30.408 12.467 65.682 26.455 65.682 69.33 0 39.531-34.057 59.6-74.804 59.6H48.81L46.682 268.2l-15.509-1.521 2.129-24.326C14.145 239.616-2.884 232.926-19 224.412v-50.477l22.806 39.226c10.339 6.386 20.07 10.947 31.016 13.076l6.994-81.494c-28.888-12.164-59.904-24.935-59.904-62.641 0-34.057 28.28-56.56 70.243-57.471L54.284 0l15.508 1.52-2.129 23.719c16.42 1.824 31.32 7.298 47.133 15.508v52.606L88.645 48.349c-7.602-3.953-14.596-6.386-22.198-7.298zm-44.396-39.53c0 16.115 12.468 25.238 29.192 32.84l5.778-67.202c-27.976 2.737-34.97 21.59-34.97 34.361m34.666 152.344c32.232-.912 39.834-19.765 39.834-34.969 0-20.982-14.9-31.929-33.449-40.747z"/><path fill="#fff" fill-rule="evenodd" d="M234.037 108.473a2.474 2.474 0 1 0 4.947 0 2.474 2.474 0 0 0-4.947 0m-6.213 10.231c-1.171 2.142-2.727 4.367-5.32 2.851-1.871-1.094-3.558 1.805-1.693 2.895 3.541 2.069 6.497.588 8.617-2.102q.109.06.236.105c1.731.603 3.312 1.577 4.692 2.778q.148.127.303.213l1.941 4.01.34.702c.855 1.767 3.619.48 2.76-1.295l-1.199-2.478q-.6-1.24-1.2-2.48a1.47 1.47 0 0 0-.649-.69 2 2 0 0 0-.14-.138 19.2 19.2 0 0 0-3.852-2.622 121 121 0 0 1 2.934-5.365c3.268 1.001 6.374-.178 8.587-3.277 1.145-1.604-1.501-3.123-2.633-1.538-1.734 2.429-4.056 2.71-6.555 1.226a1.6 1.6 0 0 0-.501-.196 3 3 0 0 0-.182-.079 1.6 1.6 0 0 0-.408-.341c-4.02-2.386-8.035-1.45-10.727 2.321-1.145 1.603 1.502 3.123 2.633 1.538 1.391-1.948 3.16-2.511 5.095-1.894a124 124 0 0 0-2.844 5.229 3 3 0 0 0-.235.627" clip-rule="evenodd"/><path fill="#fff" d="M0 131h234l2 3H0z"/><defs><linearGradient id="a" x1="53.371" x2="53.371" y1="0" y2="268.2" gradientUnits="userSpaceOnUse"><stop stop-color="#fff"/><stop offset="1" stop-color="#999"/></linearGradient></defs></svg>