<svg xmlns="http://www.w3.org/2000/svg" width="345" height="63" fill="none"><path fill="#fff" fill-rule="evenodd" d="M42.999 15.05c0 3.03 1.95 5.25 5.37 5.25 2.97 0 5.13-1.74 5.88-5.01l-.15-.15c-1.11.87-2.16 1.17-3.09 1.17-1.89 0-2.43-1.23-2.43-2.82V6.86h4.86l.9-2.16h-5.76V.95l-8.49 5.91h2.91zm105.043-4.77c-1.47-.63-3.24-.81-4.14.3v7.08l2.61 2.34h-9.78l1.59-1.8V9.02l-1.47-1.71 7.05-3.09-.78 5.19.15.06c.99-3.42 3.21-5.55 6.63-4.77zm2.378 2.07c0 5.46 4.41 7.95 8.7 7.95s8.7-2.49 8.7-7.95-4.41-7.95-8.7-7.95-8.7 2.49-8.7 7.95m11.43.63c0 3.48-.54 5.94-2.46 5.94-1.95 0-3.03-2.85-3.03-7.2 0-3.48.57-5.94 2.49-5.94 1.95 0 3 2.85 3 7.2m34.443-8.28-1.95 1.8-6.33 14.4h-.18l-5.61-10.77-5.1 10.77h-.18l-7.71-14.64-1.71-1.56h9.93l-1.59 1.8 3.03 6.51 2.28-4.86-1.8-3.45h8.43l-1.17 1.8 3.06 6.39 2.67-6.39V4.7zm-3.96 0v1.8l-1.74-1.8zm42.566 14.356 1.28.944h-3.968l1.28-.944v-3.952c0-1.408-.656-1.76-1.584-1.76-.528 0-1.36.144-2.208.8v4.912l1.28.944h-3.968l1.28-.944V9.44l-1.12-.8 2.528-1.104v4.608l-.24 1.376.08.08c.8-.8 1.744-1.424 3.104-1.424 1.12 0 2.256.512 2.256 2.224zM29.133 53.2l1.59 1.8h-8.76l1.59-1.8V36.04l-1.47-1.71 7.05-3.09zm74.257-15.18c-1.65 0-3.06-1.41-3.06-3.06s1.41-3.06 3.06-3.06 3.06 1.41 3.06 3.06-1.41 3.06-3.06 3.06m2.94 15.18 1.59 1.8h-8.76l1.59-1.8v-9.18l-1.47-1.71 7.05-3.09zm24.628-15.18c-1.65 0-3.06-1.41-3.06-3.06s1.41-3.06 3.06-3.06 3.06 1.41 3.06 3.06-1.41 3.06-3.06 3.06m2.94 15.18 1.59 1.8h-8.76l1.59-1.8v-9.18l-1.47-1.71 7.05-3.09zM155.71 55l-1.59-1.8v-9.24c0-3.54-2.19-4.56-4.47-4.56-2.94 0-4.68 1.32-6.12 2.85l-.15-.15.45-2.88-7.05 3.09 1.47 1.71v9.18l-1.59 1.8h8.76l-1.59-1.8v-9.9c1.05-.75 1.98-.93 2.67-.93 1.26 0 2.04.54 2.04 2.31v8.52l-1.59 1.8zm18.475-12.51v-3.03l-5.46.54c-1.2-.42-2.49-.6-3.69-.6-3.18 0-7.32 1.26-7.32 5.16 0 1.77.84 3 2.1 3.81-1.59.99-2.58 2.4-2.58 4.17 0 1.38.6 2.61 1.8 3.42-1.56.75-2.28 1.77-2.28 2.97 0 2.31 2.73 3.57 7.05 3.57 7.29 0 10.38-3.03 10.38-6.36 0-1.98-1.11-3.54-2.67-4.38h-9.99c-.87 0-1.32-.45-1.32-1.17 0-.54.27-1.05.9-1.56 1.23.48 2.67.69 3.93.69 3.18 0 7.32-1.26 7.32-5.16 0-1.41-.54-2.46-1.35-3.24zm-7.14 2.55c0 1.92-.63 3.39-1.83 3.39-1.32 0-2.28-2.04-2.28-4.35 0-1.92.66-3.39 1.83-3.39 1.35 0 2.28 2.04 2.28 4.35m-.36 11.16c1.44 0 2.13.69 2.13 1.86 0 1.77-1.47 3.06-4.41 3.06-2.79 0-3.93-1.11-3.93-2.79 0-.81.27-1.53.78-2.13zm-42.203-14.7 1.95-1.8h-3.9v1.8l-3.21 6.54-3.12-6.54 1.59-1.8h-9.96l1.71 1.59 7.83 14.61h.18zm-1.98 0v-1.8h-1.74zM96.628 55.18V44.74h-9.51l4.47 2.64v4.92c-.81.21-1.56.3-2.19.3-4.05 0-6.9-3.51-6.9-8.94s2.88-8.28 7.05-8.28c.78 0 1.77.09 2.88.48l3.39 5.34v-7.5l-1.65.84c-1.74-.57-3.81-.84-5.52-.84-6.36 0-12.33 3.69-12.33 11.04 0 6.78 5.04 10.56 11.85 10.56 2.13 0 4.56-.39 6.51-1.32zM67.05 53.2l1.59 1.8h-8.76l1.59-1.8v-8.52c0-1.77-.78-2.31-2.04-2.31-.69 0-1.62.18-2.67.93v9.9l1.59 1.8h-8.76l1.59-1.8v-9.18l-1.47-1.71 7.05-3.09-.45 2.88.15.15c1.44-1.53 3.18-2.85 6.12-2.85 2.28 0 4.47 1.02 4.47 4.56zm-17.996-1.17-.15-.15c-.48.39-.9.54-1.35.54-.66 0-1.14-.33-1.14-1.5v-6.51c0-3.18-2.1-5.01-5.61-5.01-3.93 0-6.36 2.25-7.71 4.86l.15.15c1.83-1.14 3.24-1.5 4.62-1.5 1.92 0 3.06.72 3.06 3.09v1.62h-6.3c-1.26.72-2.34 2.01-2.34 3.87 0 2.34 1.68 3.81 4.29 3.81 2.07 0 3.54-.93 4.5-2.13h.15c.72 1.44 1.95 2.13 3.54 2.13 1.92 0 3.6-.99 4.29-3.27m-8.13-.15c-.63.6-1.29.9-2.01.9-1.05 0-1.8-.66-1.8-1.92 0-.72.27-1.44.81-2.01h3zM9.43 46.84h2.55c5.13 0 8.94-2.61 8.94-6.84s-3.81-6-8.94-6H1.96l1.59 1.8v17.4L1.96 55h10.08l-2.61-2.34zm0-1.68v-9.48h1.71c2.37 0 3.96 1.53 3.96 4.68s-1.59 4.8-3.96 4.8zm212.63-27.304c0 1.216.848 2.304 2.256 2.304 1.008 0 1.968-.544 2.368-1.984l-.08-.08c-.656.528-1.2.736-1.776.736-1.168 0-1.36-.848-1.36-1.6V13.28h2.88l.48-.944h-3.36v-2.048l-1.408.768v1.28l-1.248.016-.496.928h1.744zm-4.207-7.312a.946.946 0 0 1-.944-.944c0-.512.432-.944.944-.944s.944.432.944.944a.946.946 0 0 1-.944.944m.784 8.512 1.28.944h-3.968l1.28-.944V14.08l-1.12-.8 2.528-1.104zm-4.364-5.792 1.264-.928h-3.616l1.408.944-1.584 4.384-2-4.384.416-.944h-2.48l.784 1.68-1.744 3.792-2-4.528 1.28-.944h-4.032l1.008.736 3.312 7.408h.096l2.544-5.44 2.512 5.44h.096l2.736-7.2zm-84.287-2.684c.9-1.11 2.67-.93 4.14-.3l1.86-5.58c-3.42-.78-5.64 1.35-6.63 4.77l-.15-.06.78-5.19-7.05 3.09 1.47 1.71v9.18l-1.59 1.8h9.78l-2.61-2.34zm-17.419 9.72c-4.29 0-8.7-2.49-8.7-7.95s4.41-7.95 8.7-7.95 8.7 2.49 8.7 7.95-4.41 7.95-8.7 7.95m.27-1.38c1.92 0 2.46-2.46 2.46-5.94 0-4.35-1.05-7.2-3-7.2-1.92 0-2.49 2.46-2.49 5.94 0 4.35 1.08 7.2 3.03 7.2M102.449 20l-1.59-1.8V8.96c0-3.57-1.95-4.56-4.2-4.56-2.64 0-4.47 1.32-5.88 2.76-.57-2.13-2.19-2.76-3.99-2.76-2.7 0-4.56 1.38-5.97 2.85l-.15-.15.45-2.88-7.05 3.09 1.47 1.71v9.18l-1.59 1.8h8.76l-1.59-1.8V8.3c1.05-.75 1.74-.93 2.52-.93 1.2 0 1.77.57 1.77 2.31v8.52l-1.59 1.8h8.76l-1.59-1.8V8.3c1.05-.75 1.74-.93 2.52-.93 1.2 0 1.77.57 1.77 2.31v8.52l-1.59 1.8zm-38.75.3c-4.29 0-8.7-2.49-8.7-7.95s4.41-7.95 8.7-7.95 8.7 2.49 8.7 7.95-4.41 7.95-8.7 7.95m.27-1.38c1.92 0 2.46-2.46 2.46-5.94 0-4.35-1.05-7.2-3-7.2-1.92 0-2.49 2.46-2.49 5.94 0 4.35 1.08 7.2 3.03 7.2m-30.496-5.048c-1.072-.32-1.92-.048-2.416.448v4.736l1.92.944h-4.608l1.28-.944V14.08l-1.12-.8 2.528-1.104-.304 1.712.08.032c.576-1.056 1.744-1.904 3.184-1.584zm-6 5.536-1.104-.848v-6.384L23.84 13.28l1.12.8v4.112c-.848.656-1.68.784-2.208.784-.768 0-1.424-.336-1.424-1.744v-5.056L18.8 13.28l1.12.8v3.856c0 1.712 1.152 2.224 2.096 2.224 1.36 0 2.608-.928 3.104-1.424h.08l.496 1.424zm-13.458.752c-2.128 0-3.904-1.52-3.904-4 0-2.464 1.776-3.984 3.904-3.984 2.144 0 3.904 1.52 3.904 3.984 0 2.48-1.76 4-3.904 4m.256-.64c1.456 0 1.984-1.408 1.984-3.008 0-2.16-1.12-3.712-2.48-3.712-1.472 0-2.016 1.424-2.016 3.024 0 2.16 1.136 3.696 2.512 3.696m-9.639 3.072 4.112-9.312 1.28-.944H6.408l1.392.928v.016l-1.84 4.304-2.24-4.304v-.016l1.264-.928H.92l1.104.816 3.184 6-2.24 4.688h3.84zM345 56H184v-1h161zM1 6h32V5H1z" clip-rule="evenodd"/></svg>