<svg xmlns="http://www.w3.org/2000/svg" width="313" height="189" fill="none"><path fill="#fff" fill-rule="evenodd" d="M0 20c11.046 0 20-8.954 20-20h273c0 11.046 8.954 20 20 20v149c-11.046 0-20 8.954-20 20H20c0-11.046-8.954-20-20-20zm23.668 165C21.981 174.949 14.051 167.019 4 165.332V23.668C14.05 21.981 21.981 14.051 23.668 4h265.664c1.687 10.05 9.617 17.981 19.668 19.668v141.664c-10.051 1.687-17.981 9.617-19.668 19.668zM3 22.806C13.303 21.464 21.464 13.303 22.806 3h267.388c1.342 10.303 9.503 18.464 19.806 19.806v143.388c-10.303 1.342-18.464 9.503-19.806 19.806H22.806C21.464 175.697 13.303 167.536 3 166.194z" clip-rule="evenodd"/></svg>