<svg xmlns="http://www.w3.org/2000/svg" width="58" height="168" fill="none"><path fill="#000" d="M45.199 48.78 58 41.13a85 85 0 0 0-.359-3.77C54.815 12.35 44.287 0 44.287 0 20.065 16.097 9.225 47.063 9.225 47.063l3.544 11.885-6.564-2.973c-11.347 32.586.746 68.495.746 68.495.953 1.422 1.988 2.417 3.047 3.13 14.017-62.18 22.988-84.61 22.988-84.61-3.167 8.073-11.544 54.975-16.866 85.922 2.633-.378 4.604-1.671 4.604-1.671 39.389-43.228 35.9-79.225 35.9-79.225-2.753-1.584-11.425.764-11.425.764M9.998 127.6C8 136.438 2.196 156.973 0 167.463l5.349-6.195s6.007-18.109 10.771-32.356c-1.85.271-4.028.073-6.122-1.312"/></svg>